<mxfile host="app.diagrams.net" modified="2022-08-26T18:54:17.212Z" agent="5.0 (Windows NT 10.0; Win64; x64) AppleWebKit/537.36 (KHTML, like Gecko) Chrome/104.0.0.0 Safari/537.36" etag="Dl2pocMXaVw9xva41jjE" version="20.2.7" type="github">
  <diagram id="meAL1Kv7en_v5xpMcwnn" name="TerraForm">
    <mxGraphModel dx="946" dy="450" grid="1" gridSize="10" guides="1" tooltips="1" connect="1" arrows="1" fold="1" page="1" pageScale="1" pageWidth="3300" pageHeight="4681" math="0" shadow="0">
      <root>
        <mxCell id="0" />
        <mxCell id="1" parent="0" />
        <mxCell id="YYMjKRvVutxy2WZ0oJnT-3" value="" style="edgeStyle=orthogonalEdgeStyle;rounded=0;orthogonalLoop=1;jettySize=auto;html=1;entryX=0;entryY=0.5;entryDx=0;entryDy=0;" edge="1" parent="1" source="YYMjKRvVutxy2WZ0oJnT-1" target="YYMjKRvVutxy2WZ0oJnT-11">
          <mxGeometry relative="1" as="geometry">
            <mxPoint x="360" y="190" as="targetPoint" />
          </mxGeometry>
        </mxCell>
        <mxCell id="YYMjKRvVutxy2WZ0oJnT-1" value="Terraform" style="rounded=0;whiteSpace=wrap;html=1;" vertex="1" parent="1">
          <mxGeometry x="130" y="160" width="120" height="60" as="geometry" />
        </mxCell>
        <mxCell id="YYMjKRvVutxy2WZ0oJnT-6" value="" style="edgeStyle=orthogonalEdgeStyle;rounded=0;orthogonalLoop=1;jettySize=auto;html=1;" edge="1" parent="1" source="YYMjKRvVutxy2WZ0oJnT-2" target="YYMjKRvVutxy2WZ0oJnT-5">
          <mxGeometry relative="1" as="geometry" />
        </mxCell>
        <mxCell id="YYMjKRvVutxy2WZ0oJnT-2" value="Remote Environment" style="rounded=0;whiteSpace=wrap;html=1;" vertex="1" parent="1">
          <mxGeometry x="400" y="160" width="120" height="60" as="geometry" />
        </mxCell>
        <mxCell id="YYMjKRvVutxy2WZ0oJnT-4" value="Provider" style="text;html=1;strokeColor=none;fillColor=none;align=center;verticalAlign=middle;whiteSpace=wrap;rounded=0;" vertex="1" parent="1">
          <mxGeometry x="290" y="200" width="60" height="30" as="geometry" />
        </mxCell>
        <mxCell id="YYMjKRvVutxy2WZ0oJnT-9" style="edgeStyle=orthogonalEdgeStyle;rounded=0;orthogonalLoop=1;jettySize=auto;html=1;entryX=0;entryY=0.5;entryDx=0;entryDy=0;" edge="1" parent="1" source="YYMjKRvVutxy2WZ0oJnT-5" target="YYMjKRvVutxy2WZ0oJnT-1">
          <mxGeometry relative="1" as="geometry">
            <Array as="points">
              <mxPoint x="670" y="140" />
              <mxPoint x="110" y="140" />
              <mxPoint x="110" y="190" />
            </Array>
          </mxGeometry>
        </mxCell>
        <mxCell id="YYMjKRvVutxy2WZ0oJnT-5" value="State of resources into State fiile" style="rounded=0;whiteSpace=wrap;html=1;" vertex="1" parent="1">
          <mxGeometry x="600" y="160" width="120" height="60" as="geometry" />
        </mxCell>
        <mxCell id="YYMjKRvVutxy2WZ0oJnT-7" value="Sync" style="text;html=1;strokeColor=none;fillColor=none;align=center;verticalAlign=middle;whiteSpace=wrap;rounded=0;" vertex="1" parent="1">
          <mxGeometry x="520" y="160" width="70" height="30" as="geometry" />
        </mxCell>
        <mxCell id="YYMjKRvVutxy2WZ0oJnT-10" value="For Any new change, Terraform will sync those changes to sync file" style="text;html=1;strokeColor=none;fillColor=none;align=center;verticalAlign=middle;whiteSpace=wrap;rounded=0;" vertex="1" parent="1">
          <mxGeometry x="230" y="110" width="290" height="30" as="geometry" />
        </mxCell>
        <mxCell id="YYMjKRvVutxy2WZ0oJnT-12" style="edgeStyle=orthogonalEdgeStyle;rounded=0;orthogonalLoop=1;jettySize=auto;html=1;entryX=0;entryY=0.5;entryDx=0;entryDy=0;" edge="1" parent="1" source="YYMjKRvVutxy2WZ0oJnT-11" target="YYMjKRvVutxy2WZ0oJnT-2">
          <mxGeometry relative="1" as="geometry" />
        </mxCell>
        <mxCell id="YYMjKRvVutxy2WZ0oJnT-11" value="API Calls" style="rounded=0;whiteSpace=wrap;html=1;" vertex="1" parent="1">
          <mxGeometry x="290" y="240" width="70" height="40" as="geometry" />
        </mxCell>
      </root>
    </mxGraphModel>
  </diagram>
</mxfile>
